<svg xmlns="http://www.w3.org/2000/svg" style="display:none">
  <symbol id="icon-calendar" viewBox="0 0 16 16">
	<path fill="#101828" d="M3.5 0a.5.5 0 0 1 .5.5V1h8V.5a.5.5 0 0 1 1 0V1h1a2 2 0 0 1 2 2v11a2 2 0 0 1-2 2H2a2 2 0 0 1-2-2V3a2 2 0 0 1 2-2h1V.5a.5.5 0 0 1 .5-.5ZM2 2a1 1 0 0 0-1 1v11a1 1 0 0 0 1 1h12a1 1 0 0 0 1-1V3a1 1 0 0 0-1-1H2Z"/>
	<path fill="#101828" d="M2.5 4a.5.5 0 0 1 .5-.5h10a.5.5 0 0 1 .5.5v1a.5.5 0 0 1-.5.5H3a.5.5 0 0 1-.5-.5V4ZM11 7.5a.5.5 0 0 1 .5-.5h1a.5.5 0 0 1 .5.5v1a.5.5 0 0 1-.5.5h-1a.5.5 0 0 1-.5-.5v-1Zm-3 0a.5.5 0 0 1 .5-.5h1a.5.5 0 0 1 .5.5v1a.5.5 0 0 1-.5.5h-1a.5.5 0 0 1-.5-.5v-1Zm-5 3a.5.5 0 0 1 .5-.5h1a.5.5 0 0 1 .5.5v1a.5.5 0 0 1-.5.5h-1a.5.5 0 0 1-.5-.5v-1Zm3 0a.5.5 0 0 1 .5-.5h1a.5.5 0 0 1 .5.5v1a.5.5 0 0 1-.5.5h-1a.5.5 0 0 1-.5-.5v-1Z"/>
  </symbol>
	
	<symbol id="icon-fuel" viewBox="0 0 16 16">
	<path fill="#101828" d="M3 2.5a.5.5 0 0 1 .5-.5h5a.5.5 0 0 1 .5.5v5a.5.5 0 0 1-.5.5h-5a.5.5 0 0 1-.5-.5v-5Z"/>
	<path fill="#101828" d="M1 2a2 2 0 0 1 2-2h6a2 2 0 0 1 2 2v8a2 2 0 0 1 2 2v.5a.5.5 0 0 0 1 0V8h-.5a.5.5 0 0 1-.5-.5V4.375a.5.5 0 0 1 .5-.5h1.495c-.011-.476-.053-.894-.201-1.222a.97.97 0 0 0-.394-.458c-.184-.11-.464-.195-.9-.195a.5.5 0 0 1 0-1c.564-.001 1.035.11 1.412.336.383.228.634.551.794.907.295.655.294 1.465.294 2.081v3.175a.5.5 0 0 1-.5.501H15v4.5a1.5 1.5 0 1 1-3 0V12a1 1 0 0 0-1-1v4h.5a.5.5 0 0 1 0 1H.5a.5.5 0 0 1 0-1H1V2Zm9 0a1 1 0 0 0-1-1H3a1 1 0 0 0-1 1v13h8V2Z"/>
  </symbol>

  <symbol id="icon-car" viewBox="0 0 16 12">
	<path fill="#101828" d="M4 7a1 1 0 1 1-2 0 1 1 0 0 1 2 0Zm10 0a1 1 0 1 1-2 0 1 1 0 0 1 2 0ZM6 6a1 1 0 0 0 0 2h4a1 1 0 1 0 0-2H6ZM4.862 2.276 3.906 4.19a.51.51 0 0 0 .497.731c.91-.073 2.35-.17 3.597-.17 1.247 0 2.688.097 3.597.17a.51.51 0 0 0 .497-.731l-.956-1.913A.5.5 0 0 0 10.691 2H5.309a.5.5 0 0 0-.447.276Z"/>
	<path fill="#101828" d="M2.52 1.515A2.5 2.5 0 0 1 4.82 0h6.362c1 0 1.904.596 2.298 1.515l.792 1.848c.075.175.21.319.38.404.5.25.855.715.965 1.262l.335 1.679c.033.161.05.325.049.49v.413c0 .814-.39 1.543-1 1.997V11.5a.5.5 0 0 1-.5.5h-2a.5.5 0 0 1-.5-.5v-1.338c-1.292.048-2.745.088-4 .088s-2.708-.04-4-.088V11.5a.5.5 0 0 1-.5.5h-2a.5.5 0 0 1-.5-.5V9.608c-.61-.454-1-1.183-1-1.997v-.413a2.5 2.5 0 0 1 .049-.49l.335-1.68c.11-.546.465-1.012.964-1.261a.8.8 0 0 0 .381-.404l.792-1.848H2.52ZM4.82 1a1.5 1.5 0 0 0-1.379.91l-.792 1.847a1.8 1.8 0 0 1-.853.904.8.8 0 0 0-.43.564L1.03 6.904c-.02.097-.03.195-.03.294v.413c0 .796.62 1.448 1.408 1.484 1.555.07 3.786.155 5.592.155 1.806 0 4.037-.084 5.592-.155A1.48 1.48 0 0 0 15 7.611v-.413c0-.099-.01-.197-.03-.294l-.335-1.68a.8.8 0 0 0-.43-.563 1.8 1.8 0 0 1-.853-.904l-.792-1.848A1.5 1.5 0 0 0 11.18 1H4.82Z"/>
  </symbol>

  <symbol id="icon-gear" viewBox="0 0 16 16">
	<path fill="#101828" d="M8 4.754a3.246 3.246 0 1 0 0 6.492 3.246 3.246 0 0 0 0-6.492ZM5.756 8a2.246 2.246 0 1 1 4.492 0 2.246 2.246 0 0 1-4.492 0Z"/>
	<path fill="#101828" d="M9.796 1.343c-.527-1.79-3.065-1.79-3.592 0l-.094.319a.873.873 0 0 1-1.255.52l-.292-.16c-1.64-.892-3.433.902-2.54 2.541l.16.292a.873.873 0 0 1-.52 1.255l-.32.094c-1.79.527-1.79 3.065 0 3.592l.32.094a.873.873 0 0 1 .52 1.255l-.16.292c-.893 1.64.9 3.434 2.54 2.54l.292-.159a.873.873 0 0 1 1.255.52l.094.319c.527 1.79 3.065 1.79 3.592 0l.094-.319a.873.873 0 0 1 1.255-.52l.293.16c1.64.893 3.433-.902 2.54-2.541l-.16-.292a.873.873 0 0 1 .52-1.255l.32-.094c1.79-.527 1.79-3.065 0-3.592l-.32-.094a.873.873 0 0 1-.52-1.255l.16-.292c.893-1.64-.902-3.433-2.54-2.54l-.293.159a.873.873 0 0 1-1.255-.52l-.094-.319Zm-2.633.283c.246-.835 1.428-.835 1.674 0l.094.319a1.873 1.873 0 0 0 2.694 1.115l.29-.16c.765-.415 1.6.42 1.185 1.185l-.16.292a1.874 1.874 0 0 0 1.117 2.692l.317.094c.835.246.835 1.428 0 1.674l-.319.094a1.873 1.873 0 0 0-1.114 2.693l.16.291c.414.764-.42 1.6-1.186 1.184l-.29-.159a1.872 1.872 0 0 0-2.694 1.116l-.094.318c-.246.835-1.428.835-1.674 0l-.094-.319a1.873 1.873 0 0 0-2.692-1.115l-.292.16c-.764.415-1.6-.42-1.184-1.185l.16-.291A1.873 1.873 0 0 0 1.944 8.93l-.319-.094c-.835-.246-.835-1.428 0-1.674l.32-.094A1.873 1.873 0 0 0 3.06 4.377l-.16-.292c-.415-.764.42-1.6 1.185-1.184l.292.159A1.873 1.873 0 0 0 7.07 1.945l.094-.319Z"/>
  </symbol>
	
	<symbol id="icon-check" viewBox="0 0 16 16">
	<path fill="#101828" d="M8 15A7 7 0 1 1 8 1a7 7 0 0 1 0 14Zm0 1A8 8 0 1 0 8-.001 8 8 0 0 0 8 16Z"/>
	<path fill="#101828" d="m10.97 4.97-.02.022-3.473 4.425-2.093-2.094a.75.75 0 0 0-1.06 1.06L6.97 11.03a.75.75 0 0 0 1.08-.02l3.991-4.99a.75.75 0 0 0-1.07-1.05Z"/>
	</symbol>
	
	<symbol id="icon-map" viewBox="0 0 16 16">
	<path fill="#101828" d="M9.53 8.381c-.49.996-1.156 1.988-1.837 2.878a30.003 30.003 0 0 1-2.068 2.41 30.002 30.002 0 0 1-2.068-2.41c-.68-.89-1.346-1.882-1.838-2.878C1.222 7.375.937 6.433.937 5.625a4.687 4.687 0 1 1 9.376 0c0 .808-.286 1.75-.782 2.756ZM5.626 15s5.625-5.33 5.625-9.375a5.625 5.625 0 1 0-11.25 0C0 9.669 5.625 15 5.625 15Z"/>
	<path fill="#101828" d="M5.625 7.5a1.875 1.875 0 1 1 0-3.75 1.875 1.875 0 0 1 0 3.75Zm0 .938a2.813 2.813 0 1 0 0-5.626 2.813 2.813 0 0 0 0 5.626Z"/>
	</symbol>
	
	<symbol id="icon-up" viewBox="0 0 16 16">
	<path fill="#101828" fill-rule="evenodd" d="M7.147 4.147a.5.5 0 0 1 .708 0l6 6a.5.5 0 1 1-.708.708L7.5 5.208l-5.646 5.647a.5.5 0 0 1-.708-.708l6-6Z" clip-rule="evenodd"/>
	</symbol>
	
	<symbol id="icon-down" viewBox="0 0 16 16">
	<path fill="#101828" fill-rule="evenodd" d="M1.147 4.147a.5.5 0 0 1 .708 0L7.5 9.794l5.646-5.647a.501.501 0 0 1 .708.708l-6 6a.5.5 0 0 1-.708 0l-6-6a.5.5 0 0 1 0-.708Z" clip-rule="evenodd"/>
	</symbol>
	
	<symbol id="icon-heart" viewBox="0 0 16 15">
	<path fill="#F2F4F7" d="m8 2.748-.717-.737C5.6.281 2.513.878 1.4 3.053c-.523 1.023-.641 2.5.314 4.385.92 1.815 2.834 3.989 6.286 6.357 3.452-2.368 5.365-4.542 6.286-6.357.955-1.886.838-3.362.314-4.385C13.486.878 10.4.28 8.717 2.01L8 2.748ZM8 15C-7.333 4.868 3.279-3.04 7.824 1.143c.06.055.119.112.176.171a3 3 0 0 1 .176-.17C12.72-3.042 23.333 4.867 8 15Z"/>
	</symbol>
	
	<symbol id="icon-hearton" viewBox="0 0 16 15">
	<path fill="#3470FF" fill-rule="evenodd" d="M8 1.314C12.438-3.248 23.534 4.735 8 15-7.534 4.736 3.562-3.248 8 1.314Z" clip-rule="evenodd"/>
	</symbol>
</svg>
